<svg xmlns="http://www.w3.org/2000/svg" width="11.901" height="22.012" viewBox="0 0 11.901 22.012"><defs><style>.a{fill:#d4495c;}</style></defs><path class="a" d="M33.53,0,30.675,0C27.468,0,25.4,2.126,25.4,5.417v2.5h-2.87a.449.449,0,0,0-.449.449v3.619a.449.449,0,0,0,.449.449H25.4v9.131a.449.449,0,0,0,.449.449h3.745a.449.449,0,0,0,.449-.449V12.432h3.356a.449.449,0,0,0,.449-.449V8.364a.449.449,0,0,0-.449-.449H30.038V5.8c0-1.018.243-1.534,1.568-1.534h1.923a.449.449,0,0,0,.449-.449V.453A.449.449,0,0,0,33.53,0Z" transform="translate(-22.077)"/></svg>