<svg xmlns="http://www.w3.org/2000/svg" width="21.851" height="21.851" viewBox="0 0 21.851 21.851"><defs><style>.a{fill:#d4495c;}</style></defs><path class="a" d="M15.936,0H5.915A5.922,5.922,0,0,0,0,5.915V15.936a5.922,5.922,0,0,0,5.915,5.915H15.936a5.922,5.922,0,0,0,5.915-5.915V5.915A5.922,5.922,0,0,0,15.936,0ZM10.926,17.249c-4.214,0-6.563-2.653-6.563-6.323s2.5-6.331,6.563-6.331,6.323,2.73,6.323,6.331S15.14,17.249,10.926,17.249ZM17.391,6.012a1.766,1.766,0,1,1,1.766-1.765A1.767,1.767,0,0,1,17.391,6.012Zm0,0"/><path class="a" d="M150.4,146.02a4.379,4.379,0,1,0,4.379,4.379A4.384,4.384,0,0,0,150.4,146.02Zm0,0" transform="translate(-139.44 -139.507)"/><path class="a" d="M388.477,96.3a.484.484,0,1,0,.485.484A.485.485,0,0,0,388.477,96.3Zm0,0" transform="translate(-371.085 -92.539)"/></svg>