<svg xmlns="http://www.w3.org/2000/svg" width="21.185" height="20.249" viewBox="0 0 21.185 20.249"><defs><style>.a{fill:#d4495c;}</style></defs><path class="a" d="M2.569-.668a2.367,2.367,0,1,0-.06,4.721h.029a2.368,2.368,0,1,0,.03-4.721Zm0,0" transform="translate(0 0.668)"/><path class="a" d="M8.109,198.313h4.541v13.663H8.109Zm0,0" transform="translate(-7.841 -191.726)"/><path class="a" d="M229.849,188.625a5.689,5.689,0,0,0-4.093,2.3v-1.981h-4.542v13.663h4.541v-7.63a3.112,3.112,0,0,1,.15-1.108,2.486,2.486,0,0,1,2.33-1.661c1.643,0,2.3,1.253,2.3,3.09v7.309h4.541v-7.834C235.077,190.578,232.837,188.625,229.849,188.625Zm0,0" transform="translate(-213.892 -182.359)"/></svg>